<?xml version="1.0" encoding="UTF-8"?>
<svg id="Layer_2" data-name="Layer 2" xmlns="http://www.w3.org/2000/svg" viewBox="0 0 1429.85 1429.85">
  <defs>
    <style>
      .cls-1 {
        fill: #fff;
      }

      .cls-2 {
        fill: #d72129;
      }
    </style>
  </defs>
  <g id="Layer_1-2" data-name="Layer 1">
    <g>
      <path class="cls-2" d="M714.93,114.77c81.07,0,159.66,15.85,233.57,47.12,35.54,15.03,69.82,33.64,101.9,55.31,31.8,21.49,61.72,46.17,88.9,73.35s51.87,57.1,73.35,88.9c21.67,32.08,40.28,66.36,55.31,101.9,31.26,73.92,47.12,152.5,47.12,233.57s-15.85,159.66-47.12,233.57c-15.03,35.54-33.64,69.82-55.31,101.9-21.49,31.8-46.17,61.72-73.35,88.9-27.19,27.19-57.1,51.87-88.9,73.35-32.08,21.67-66.36,40.28-101.9,55.31-73.92,31.26-152.5,47.12-233.57,47.12s-159.66-15.85-233.57-47.12c-35.54-15.03-69.82-33.64-101.9-55.31-31.8-21.49-61.71-46.17-88.9-73.35-27.19-27.19-51.87-57.1-73.35-88.9-21.67-32.08-40.28-66.36-55.31-101.9-31.26-73.92-47.12-152.5-47.12-233.57s15.85-159.66,47.12-233.57c15.03-35.54,33.64-69.82,55.31-101.9,21.49-31.8,46.17-61.72,73.35-88.9,27.19-27.19,57.1-51.87,88.9-73.35,32.08-21.67,66.36-40.28,101.9-55.31,73.92-31.26,152.5-47.12,233.57-47.12M714.93,0C320.08,0,0,320.08,0,714.93s320.08,714.93,714.93,714.93,714.93-320.08,714.93-714.93S1109.77,0,714.93,0h0Z"/>
      <g>
        <g>
          <path d="M769.45,138.16l-72.51,133.86-99.34,183.39v-168.12c-73.47,20.03-140.81,58.9-196.11,114.2-83.72,83.72-129.82,195.05-129.82,313.44,0,61.37,12.4,120.83,35.98,175.53v236.42c-106.22-105.01-172.02-250.78-172.02-411.95,0-279.73,198.3-513.18,461.98-567.42,37.89-7.78,77.12-11.89,117.33-11.89,18.39,0,36.58.86,54.52,2.54Z"/>
          <path d="M660.41,1291.69l72.51-133.86,99.34-183.39v168.12c73.47-20.03,140.81-58.9,196.11-114.2,83.72-83.72,129.82-195.05,129.82-313.44,0-61.37-12.4-120.83-35.98-175.53v-236.42c106.22,105.01,172.02,250.78,172.02,411.95,0,279.73-198.3,513.18-461.98,567.42-37.89,7.78-77.12,11.89-117.33,11.89-18.39,0-36.58-.86-54.52-2.54Z"/>
        </g>
        <g>
          <path d="M571.58,366.55v24.59c-39.13,17.46-75.15,42.15-106.37,73.39-67.09,67.09-104.05,156.3-104.05,251.18,0,52.33,11.24,102.92,32.58,149.02l-16.93,16.96c-24.54-50.09-38.32-106.42-38.32-165.98,0-157.41,96.24-292.35,233.09-349.16Z"/>
          <path d="M865.03,1063.27l-.27-24.59c38.93-17.89,74.69-42.97,105.56-74.55,66.35-67.82,102.33-157.43,101.29-252.31-.57-52.32-12.36-102.79-34.21-148.66l16.74-17.14c25.09,49.81,39.48,105.99,40.14,165.55,1.72,157.4-93.03,293.39-229.26,351.7Z"/>
        </g>
        <path class="cls-2" d="M571.57,440.59v17.16c-23.08,13.03-44.52,29.3-63.79,48.55-55.7,55.73-86.39,129.8-86.39,208.61,0,36.05,6.42,71.15,18.74,103.92l-11.61,11.61c-14.36-35.7-22.25-74.7-22.25-115.54,0-118.97,66.99-222.29,165.3-274.31Z"/>
        <path class="cls-2" d="M862.49,988.54l-.08-17.16c23.02-13.13,44.38-29.51,63.57-48.84,55.45-55.98,85.79-130.2,85.43-209-.17-36.05-6.75-71.12-19.22-103.84l11.56-11.67c14.52,35.63,22.59,74.6,22.78,115.44.55,118.96-65.97,222.59-164.03,275.07Z"/>
        <g>
          <polygon points="335.05 1085.13 324.86 1073.97 367.01 1035.5 367.01 988.53 408.54 953.18 408.54 929.85 423.66 929.85 423.66 960.16 382.13 995.51 382.13 1042.16 335.05 1085.13"/>
          <path d="M483.52,941.17l1.18,55.5-45.3,29.1-2.42,52.93-42.68,35.2-.96,44.06-22.52,23.05c-4.08-3.02-8.11-6.1-12.12-9.22l19.68-20.13.98-45.02,42.83-35.35,2.44-54.02,44.77-28.77-1.11-53.08,12.77-13.93,11.14,10.2-8.69,9.47Z"/>
          <path d="M585.41,932.35l-37.01,31.37-2.42,51.19-39.23,33.33-5.84,53.01-38.55,35.15-6.83,57.11-27.91,24.54c-4.61-2.62-9.2-5.32-13.71-8.06l27.29-24.01,6.83-56.96,38.5-35.1,5.87-53.29,38.8-32.98,2.42-51.22,42.02-35.6,9.78,11.51Z"/>
          <path d="M649.47,930.66l-6.7,61.9-46.11,35.62-9.27,48.22-41.85,33.1-8.79,52.2-43.03,33.56-6.55,49.51-2.27,1.97c-5.09-2.19-10.15-4.46-15.19-6.83l3.22-2.8,6.63-49.96,43.26-33.73,8.77-52.15,42.02-33.23,9.27-48.32,45.55-35.2,6-55.5,15.04,1.64Z"/>
          <path d="M717.87,932.05l-13.03,12.47-3.91,52.43-39.6,33.73-5.37,50.66-40.86,35.52-3.91,47.64-45.68,42.75-2.12,66.94c-5.01-1.34-10-2.77-14.97-4.26l2.17-69.43,46-43.06,3.91-47.94,41.04-35.67,5.37-50.74,39.4-33.56,3.88-51.92,17.21-16.48,10.46,10.91Z"/>
          <path d="M808.77,935.58l-46.05,39.53-6.35,53.71-38.45,32.12-5.37,56.13-43.21,34.94-1.94,47.82-36.56,29.22-1.81,58.85c-5.04-.76-10.05-1.56-15.04-2.44l1.97-63.84,36.61-29.28,1.97-47.77,43.59-35.27,5.34-56.01,38.62-32.25,6.32-53.59,50.51-43.36,9.85,11.46Z"/>
        </g>
        <g>
          <polygon points="1085.12 335.06 1095.6 345.96 1054.45 385.5 1055.66 432.45 1015.05 468.87 1015.65 492.19 1000.54 492.58 999.76 462.27 1040.37 425.86 1039.17 379.23 1085.12 335.06"/>
          <path d="M940.41,482.8l-2.61-55.45,44.53-30.26,1.05-52.98,41.76-36.28-.18-44.07,21.92-23.62c4.16,2.92,8.27,5.89,12.35,8.91l-19.15,20.63.18,45.03-41.9,36.44-1.05,54.06-44.01,29.92,2.48,53.04-12.41,14.26-11.39-9.91,8.45-9.69Z"/>
          <path d="M838.78,494.24l36.19-32.31,1.1-51.24,38.36-34.33,4.48-53.14,37.63-36.13,5.35-57.27,27.27-25.25c4.68,2.5,9.33,5.08,13.91,7.71l-26.66,24.7-5.36,57.12-37.58,36.08-4.5,53.42-37.94,33.97-1.1,51.26-41.09,36.67-10.07-11.26Z"/>
          <path d="M774.78,497.58l5.1-62.05,45.17-36.8,8.03-48.44,40.98-34.17,7.45-52.41,42.15-34.66,5.27-49.66,2.22-2.02c5.14,2.06,10.26,4.2,15.36,6.43l-3.15,2.88-5.34,50.11-42.37,34.84-7.42,52.36-41.15,34.3-8.02,48.54-44.63,36.36-4.56,55.64-15.08-1.25Z"/>
          <path d="M706.36,497.95l12.7-12.8,2.55-52.51,38.72-34.74,4.06-50.79,39.94-36.56,2.68-47.73,44.56-43.92.39-66.97c5.05,1.21,10.07,2.51,15.07,3.87l-.38,69.47-44.88,44.23-2.67,48.03-40.11,36.72-4.06,50.86-38.53,34.56-2.54,52.01-16.78,16.91-10.73-10.64Z"/>
          <path d="M615.4,496.77l45.02-40.7,4.96-53.86,37.61-33.1,3.92-56.25,42.29-36.05.71-47.85,35.79-30.16.3-58.88c5.06.63,10.09,1.3,15.1,2.06l-.32,63.87-35.84,30.21-.73,47.8-42.66,36.38-3.9,56.13-37.78,33.23-4.94,53.73-49.38,44.65-10.14-11.21Z"/>
        </g>
        <g>
          <rect class="cls-2" x="598.21" y="609.85" width="41.61" height="214.23"/>
          <polygon class="cls-2" points="598.21 609.85 639.82 609.85 515.97 824.08 464.36 824.08 598.21 609.85"/>
          <rect class="cls-2" x="662.58" y="609.85" width="41.61" height="214.23"/>
          <rect class="cls-2" x="787.09" y="609.85" width="41.61" height="214.23"/>
          <polygon class="cls-2" points="787.09 609.85 828.7 609.85 708.31 824.08 662.58 824.08 787.09 609.85"/>
          <polygon class="cls-2" points="910.61 609.85 962.54 609.85 828.75 824.08 787.1 824.08 910.61 609.85"/>
        </g>
      </g>
      <g>
        <path class="cls-1" d="M281.2,235.12l-5.83-6.81,27.52-23.57,5.83,6.81-27.52,23.58Z"/>
        <path class="cls-1" d="M383.62,115.63l59.55,39.61-13.6,7.68-9.92-7.03-31.46,17.78.83,12.17-12.96,7.32-2.97-71.58,10.54-5.96ZM410.71,149.48l-25.43-18.12,2.17,31.26,23.26-13.14Z"/>
        <path class="cls-1" d="M453.26,81.88l13.4,35.25c1.12,2.94,2.42,5.23,3.9,6.87s3.18,2.75,5.11,3.3c1.93.55,4.08.64,6.48.26,2.39-.38,5.09-1.14,8.08-2.28,3-1.14,5.53-2.37,7.6-3.68,2.07-1.31,3.65-2.82,4.72-4.51,1.07-1.7,1.61-3.65,1.63-5.87.02-2.21-.54-4.79-1.65-7.73l-13.4-35.25,13.05-4.96,13.8,36.29c3.17,8.36,3.05,15.49-.37,21.41-3.42,5.91-10.52,10.92-21.29,15.01-10.71,4.08-19.32,5.06-25.83,2.95-6.5-2.1-11.35-7.36-14.55-15.78l-13.79-36.28,13.13-4.99Z"/>
        <path class="cls-1" d="M577.36,56.1l11.15,50.93-13.64,2.98-11.15-50.92-27.09,5.93-2.49-11.38,67.9-14.87,2.49,11.38-27.18,5.95Z"/>
        <path class="cls-1" d="M659.28,96.16c-4.86-.75-8.92-2.29-12.19-4.61-3.27-2.33-5.78-5.57-7.55-9.71-1.77-4.15-2.86-9.46-3.26-15.91-.41-6.71.06-12.26,1.42-16.66,1.36-4.41,3.55-7.96,6.56-10.65,3.02-2.68,6.87-4.65,11.58-5.9,4.7-1.25,10.2-2.07,16.47-2.47,6.27-.39,11.82-.26,16.65.4,4.82.66,8.91,2.14,12.27,4.42,3.35,2.3,5.96,5.55,7.83,9.75,1.87,4.21,3.01,9.66,3.42,16.36.4,6.46-.02,11.86-1.26,16.2-1.24,4.34-3.34,7.86-6.29,10.58-2.95,2.71-6.79,4.74-11.52,6.09-4.73,1.34-10.39,2.22-16.97,2.63-6.58.4-12.3.24-17.17-.51ZM686.35,83.96c3.01-.71,5.45-1.9,7.33-3.56,1.87-1.66,3.21-3.97,4.02-6.92s1.06-6.77.77-11.44c-.31-4.86-1.04-8.72-2.2-11.58-1.16-2.86-2.79-5-4.89-6.41-2.1-1.41-4.66-2.25-7.71-2.53-3.04-.27-6.59-.29-10.65-.03-4.06.26-7.58.7-10.57,1.35-2.98.65-5.43,1.81-7.33,3.47-1.91,1.66-3.24,3.97-4.02,6.92s-1.01,6.89-.7,11.81c.29,4.68,1,8.43,2.13,11.26,1.14,2.83,2.75,4.96,4.84,6.37,2.1,1.41,4.66,2.29,7.71,2.62,3.05.34,6.6.37,10.66.12,4.06-.26,7.59-.73,10.6-1.45Z"/>
        <path class="cls-1" d="M769.54,75.67l21.68-41.21,8.82,1.03,12.04,44.98,20.83-41.13,14.88,1.74-32.69,60.4-9.55-1.12-12.11-45.92-22.05,41.91-9.74-1.14-18.46-66.4,15.06,1.77,11.28,45.07Z"/>
        <path class="cls-1" d="M910.14,58.47l13.54,70.26-15.02-4.31-1.95-12-34.76-9.96-8.1,9.13-14.32-4.1,48.96-52.35,11.64,3.34ZM905.02,101.54l-4.92-30.85-20.77,23.49,25.69,7.36Z"/>
        <path class="cls-1" d="M978.41,117.18l33.47-19.83,14.64,6.44-46.06,25.7-8.75,19.89-12.78-5.63,8.64-19.63-12.48-51.76,14.9,6.56,8.42,38.26Z"/>
        <path class="cls-1" d="M1033.83,182.13c-3.25-2.94-5.62-5.9-7.11-8.89-1.5-2.99-2.11-6.06-1.83-9.2.28-3.14,1.5-6.48,3.65-10l12.34,7.83c-1.18,2.09-1.75,4.03-1.71,5.8.04,1.78.55,3.47,1.54,5.09.98,1.61,2.41,3.19,4.28,4.74,1.86,1.54,4.07,3.13,6.62,4.74,3.44,2.19,6.33,3.78,8.68,4.79s4.32,1.59,5.91,1.72c1.59.14,2.9-.11,3.92-.74s1.9-1.51,2.62-2.66c.76-1.2,1.14-2.31,1.13-3.33,0-1.03-.27-2.03-.78-3.01-.51-.98-1.25-1.97-2.23-2.95-.98-.99-2.08-2.01-3.31-3.08l-16.9-14.77c-4.91-4.35-7.84-8.58-8.81-12.7s-.2-8.15,2.31-12.1c1.39-2.19,3.12-3.95,5.21-5.29s4.65-2.07,7.68-2.19c3.04-.12,6.58.53,10.65,1.94,4.07,1.41,8.75,3.8,14.07,7.17,4.58,2.9,8.38,5.73,11.42,8.5,3.03,2.76,5.26,5.58,6.68,8.45s2.02,5.88,1.78,9.01c-.24,3.14-1.36,6.48-3.39,10.01l-11.87-7.52c1.1-2.08,1.65-3.98,1.64-5.7,0-1.71-.5-3.34-1.46-4.86-.97-1.53-2.33-3.01-4.08-4.45-1.75-1.44-3.85-2.93-6.3-4.48-3.38-2.15-6.23-3.7-8.55-4.65-2.31-.96-4.23-1.48-5.74-1.56-1.52-.08-2.7.15-3.56.7-.86.55-1.57,1.27-2.13,2.15-1.06,1.66-1.31,3.36-.77,5.09.55,1.73,2.04,3.67,4.48,5.8l16.57,14.45c2.72,2.38,4.99,4.64,6.81,6.78,1.82,2.14,3.12,4.26,3.9,6.36.78,2.1,1.02,4.23.7,6.41-.31,2.17-1.25,4.48-2.8,6.92-1.69,2.65-3.61,4.74-5.77,6.25-2.17,1.51-4.79,2.32-7.87,2.4s-6.69-.65-10.81-2.2c-4.12-1.55-8.99-4.11-14.62-7.68-4.89-3.1-8.96-6.12-12.21-9.05Z"/>
        <path d="M1147.56,234.01l6.18-6.5,26.27,24.97-6.18,6.49-26.27-24.96Z"/>
        <path d="M1266.11,328.31l-42.35,30.42-8.15-11.33,42.35-30.43-16.18-22.52,9.46-6.8,40.56,56.46-9.46,6.8-16.23-22.6Z"/>
        <path d="M1297.55,419.38l38.45,5.88,7.24,14.26-51.9-9.31-19.37,9.84-6.32-12.45,19.12-9.71,23.15-47.94,7.37,14.51-17.73,34.92Z"/>
        <path d="M1328.26,498.02l5.89,17.92c1.35,4.1,3.18,6.95,5.5,8.56,2.32,1.61,5.69,1.67,10.15.21,2.1-.7,3.75-1.48,4.92-2.35,1.17-.87,1.99-1.94,2.45-3.19.46-1.25.58-2.73.34-4.44s-.75-3.76-1.54-6.16l-6.97-21.16-49.71,16.37-4.37-13.27,60.6-19.95,12.15,36.89c1.37,4.16,2.18,7.85,2.43,11.08.25,3.23-.12,6.08-1.13,8.55-1,2.48-2.61,4.58-4.83,6.31-2.21,1.74-5.14,3.21-8.77,4.4-6.56,2.16-12.12,2.11-16.69-.14-4.57-2.26-8.06-7.15-10.47-14.66l-12.95,29.28-5.63-17.12,18.65-37.1Z"/>
        <path d="M1321.45,578.55l62.8-11.15,9.95,56.06-10.92,1.94-7.51-42.32-14.92,2.65,7.38,41.59-10.74,1.91-7.38-41.59-15.29,2.71,7.53,42.41-10.92,1.94-9.97-56.15Z"/>
        <path d="M1365.3,725.57l-.69,18.85c-.16,4.31.57,7.62,2.18,9.93,1.61,2.32,4.76,3.56,9.44,3.73,2.22.08,4.03-.08,5.43-.5,1.4-.4,2.54-1.12,3.41-2.14.87-1.02,1.49-2.37,1.86-4.05.37-1.68.6-3.79.7-6.31l.82-22.27-52.3-1.93.52-13.95,63.76,2.35-1.44,38.82c-.16,4.38-.68,8.12-1.57,11.23-.89,3.11-2.23,5.65-4.03,7.62-1.8,1.97-4.04,3.39-6.73,4.24-2.68.86-5.93,1.21-9.76,1.08-6.9-.26-12.1-2.24-15.6-5.95s-5.07-9.5-4.73-17.38l-22.32,22.96.67-18.02,30.38-28.31Z"/>
        <path d="M1330.92,798.8l62.76,11.38-10.16,56.03-10.92-1.98,7.67-42.29-14.92-2.71-7.54,41.57-10.73-1.94,7.53-41.57-15.28-2.76-7.68,42.38-10.92-1.98,10.17-56.12Z"/>
        <path d="M1351.69,933.85l-49.5-16.42,4.4-13.26,49.5,16.42,8.73-26.33,11.06,3.67-21.89,65.99-11.06-3.67,8.76-26.41Z"/>
        <path d="M1302.03,995.3l-8.5,16.84c-1.95,3.85-2.67,7.17-2.17,9.94.5,2.77,2.84,5.21,7.02,7.32,1.98,1,3.7,1.61,5.14,1.82,1.44.21,2.78.04,3.99-.52,1.22-.56,2.34-1.53,3.38-2.91,1.04-1.37,2.13-3.18,3.27-5.44l10.04-19.89-46.71-23.57,6.29-12.47,56.95,28.74-17.49,34.66c-1.97,3.9-4.01,7.09-6.11,9.55-2.11,2.46-4.39,4.21-6.85,5.25-2.46,1.04-5.08,1.38-7.88,1.04-2.8-.34-5.9-1.37-9.31-3.09-6.16-3.11-10.06-7.08-11.7-11.91-1.63-4.83-.65-10.75,2.96-17.77l-29.85,11.55,8.12-16.1,39.41-13.04Z"/>
        <path d="M1240.22,1047.5l52.26,36.58-32.66,46.66-9.09-6.36,24.66-35.21-12.42-8.7-24.23,34.61-8.93-6.25,24.23-34.61-12.72-8.9-24.71,35.29-9.09-6.37,32.71-46.72Z"/>
        <path d="M1209.59,1188.47l-68.63-20.13,10.71-11.38,11.56,3.77,24.76-26.33-4.4-11.38,10.2-10.84,24.1,67.46-8.29,8.82ZM1173.66,1164.2l29.66,9.75-11.36-29.21-18.3,19.46Z"/>
        <path d="M1136.96,1254.28c-4.47,3.49-8.7,6.28-12.72,8.34-4.01,2.08-7.91,3.14-11.72,3.18-3.8.04-7.6-1.1-11.4-3.41-3.8-2.31-7.76-6.11-11.9-11.41-3.83-4.9-6.43-9.43-7.78-13.57-1.35-4.13-1.61-8.06-.76-11.78.85-3.71,2.72-7.32,5.61-10.83,2.89-3.51,6.69-7.1,11.4-10.78l25.49-19.92,39.26,50.26-25.49,19.92ZM1098.17,1218.36c-1.97,2.13-3.26,4.36-3.85,6.71s-.44,4.89.47,7.66c.91,2.77,2.77,5.95,5.58,9.55,3.03,3.89,5.8,6.63,8.31,8.23,2.5,1.61,4.96,2.37,7.36,2.29,2.4-.07,4.83-.87,7.3-2.36,2.47-1.49,5.18-3.4,8.14-5.72l13.26-10.35-25.83-33.08-13.26,10.36c-3.01,2.35-5.5,4.59-7.48,6.72Z"/>
        <path d="M1045.89,1241.28l31.52,55.48-49.52,28.14-5.48-9.64,37.39-21.24-7.49-13.18-36.74,20.88-5.39-9.49,36.74-20.87-7.68-13.51-37.46,21.29-5.48-9.64,49.6-28.19Z"/>
        <path d="M965.04,1315.48l-17.56,6.87c-4.02,1.57-6.77,3.56-8.24,5.95-1.48,2.4-1.36,5.78.34,10.14.81,2.07,1.68,3.66,2.62,4.78.93,1.12,2.04,1.88,3.32,2.28,1.28.39,2.76.42,4.46.09,1.69-.33,3.71-.96,6.06-1.87l20.75-8.11-19.05-48.73,13-5.08,23.22,59.41-36.16,14.13c-4.08,1.59-7.71,2.6-10.92,3.03-3.21.43-6.07.21-8.59-.65-2.52-.87-4.71-2.37-6.57-4.48-1.86-2.12-3.47-4.96-4.87-8.52-2.51-6.43-2.76-11.99-.76-16.67,2.01-4.69,6.69-8.44,14.06-11.25l-29.93-11.33,16.79-6.56,38.05,16.59Z"/>
        <path d="M867.97,1316.7c4.37-.24,8.14.17,11.32,1.22,3.18,1.05,5.78,2.78,7.81,5.19,2.03,2.42,3.54,5.63,4.51,9.64l-14.25,3.23c-.65-2.32-1.62-4.08-2.91-5.3-1.29-1.23-2.85-2.05-4.69-2.49-1.83-.44-3.96-.54-6.37-.31s-5.09.68-8.04,1.35c-3.97.9-7.14,1.83-9.51,2.78-2.38.95-4.17,1.94-5.39,2.98-1.22,1.03-1.97,2.13-2.24,3.3s-.26,2.42.04,3.74c.32,1.38.84,2.43,1.57,3.15.73.72,1.63,1.25,2.68,1.58,1.05.32,2.28.49,3.66.49s2.9-.06,4.51-.17l22.4-1.58c6.54-.41,11.61.49,15.21,2.71,3.61,2.22,5.92,5.6,6.96,10.17.57,2.52.6,5,.07,7.43-.53,2.42-1.81,4.76-3.86,6.99-2.05,2.24-5.01,4.3-8.88,6.2-3.87,1.89-8.87,3.53-15,4.93-5.29,1.2-9.98,1.9-14.07,2.11-4.1.2-7.66-.21-10.71-1.23-3.04-1.01-5.59-2.7-7.65-5.09-2.05-2.37-3.63-5.52-4.71-9.45l13.7-3.11c.7,2.24,1.66,3.97,2.88,5.17,1.22,1.21,2.71,2.01,4.48,2.4,1.76.39,3.77.47,6.03.24,2.25-.23,4.8-.67,7.62-1.31,3.91-.88,7.01-1.81,9.32-2.78,2.31-.97,4.03-1.96,5.16-2.98,1.13-1.01,1.8-2.02,2.02-3.01.21-1,.21-2.01-.02-3.03-.44-1.92-1.46-3.31-3.07-4.14-1.61-.83-4.04-1.13-7.27-.9l-21.93,1.56c-3.61.26-6.81.27-9.61.06s-5.22-.79-7.26-1.72c-2.04-.92-3.72-2.27-5.04-4.02s-2.29-4.04-2.94-6.87c-.7-3.06-.82-5.9-.37-8.49.45-2.6,1.73-5.03,3.84-7.28,2.11-2.25,5.17-4.28,9.18-6.11,4.01-1.82,9.26-3.47,15.75-4.95,5.65-1.29,10.66-2.05,15.03-2.28Z"/>
        <path d="M713.26,1399.67l-32.79-63.58,15.63-.11,5.26,10.96,36.15-.24,5.2-11.03,14.89-.11-32.21,64.02-12.11.08ZM706.04,1356.91l13.41,28.21,13.31-28.39-26.72.18Z"/>
        <path d="M599.25,1345.5l-6.49,43.52-13.17-1.96,9.41-63.1,9.88,1.48,38.45,49.96,6.46-43.26,13.16,1.97-9.41,63.1-9.69-1.45-38.59-50.25Z"/>
        <path d="M510.48,1368.5c-5.41-1.7-10.11-3.61-14.09-5.73-3.98-2.12-7.07-4.74-9.26-7.85s-3.41-6.88-3.66-11.32c-.26-4.44.63-9.86,2.64-16.27,1.87-5.94,4.12-10.64,6.76-14.11,2.64-3.47,5.73-5.9,9.27-7.31,3.55-1.4,7.58-1.91,12.11-1.52,4.53.39,9.64,1.48,15.35,3.27l30.86,9.7-19.12,60.84-30.86-9.69ZM518.05,1316.18c-2.88-.42-5.45-.21-7.71.63-2.27.84-4.28,2.42-6.04,4.74-1.76,2.32-3.33,5.66-4.69,10.01-1.48,4.71-2.17,8.54-2.07,11.51s.86,5.42,2.29,7.35c1.42,1.94,3.45,3.49,6.08,4.68,2.63,1.18,5.74,2.33,9.33,3.47l16.05,5.04,12.58-40.03-16.05-5.04c-3.65-1.15-6.91-1.93-9.77-2.35Z"/>
        <path d="M418.73,1261.36l11.97,7.19-32.81,54.69-9.11-5.47-10.36-40.6-40.45,10.12-9.04-5.42,32.81-54.69,12.05,7.23-22.59,37.65,35.41-8.18,9.39,35.38,22.73-37.89Z"/>
        <path d="M267.43,1233.06l16.64-69.55,11.9,10.11-3.18,11.74,27.54,23.4,11.14-4.97,11.34,9.63-66.16,27.48-9.23-7.84ZM289.85,1195.96l-8.24,30.12,28.6-12.82-20.36-17.3Z"/>
        <path d="M216.22,1117.67l-33.28,28.79-8.71-10.07,48.24-41.74,6.53,7.55-3.37,62.94,33.07-28.6,8.71,10.07-48.25,41.73-6.41-7.41,3.46-63.26Z"/>
        <path d="M144.01,1093.45l31.99-19.96c2.66-1.66,4.66-3.38,5.99-5.16,1.33-1.77,2.08-3.65,2.25-5.65.17-1.99-.16-4.12-1-6.4-.84-2.27-2.1-4.77-3.8-7.48-1.7-2.72-3.39-4.97-5.08-6.75-1.69-1.77-3.47-3.03-5.34-3.75-1.87-.73-3.89-.88-6.07-.47-2.17.42-4.6,1.45-7.26,3.11l-31.99,19.97-7.39-11.84,32.94-20.55c7.58-4.73,14.6-5.98,21.07-3.77,6.47,2.21,12.75,8.21,18.85,17.98,6.07,9.73,8.7,17.98,7.88,24.77s-5.03,12.57-12.66,17.33l-32.94,20.55-7.44-11.92Z"/>
        <path d="M127.82,987.42l23.96-10.51,5.61,12.78-58.41,25.63-22.76-51.89,10.24-4.5,17.16,39.11,14.05-6.16-16.86-38.44,10.16-4.45,16.86,38.43Z"/>
        <path d="M54.42,895.19l52.63-48.42,4.23,15.04-9.18,7.96,9.79,34.79,12.01,2.09,4.03,14.33-70.23-14.13-3.28-11.66ZM93.74,876.92l-23.65,20.39,30.88,5.32-7.24-25.71Z"/>
        <path d="M83.84,759.1c3.16,1.22,5.82,3.16,7.98,5.82,2.16,2.65,3.9,6.03,5.21,10.16,1.32,4.12,2.34,9.08,3.05,14.9.78,6.3.93,11.82.46,16.57s-1.77,8.79-3.9,12.13c-2.14,3.34-5.22,6-9.26,7.99-4.04,1.99-9.27,3.38-15.69,4.17-6.67.83-12.24.72-16.72-.31-4.48-1.03-8.14-2.93-11-5.72-2.86-2.78-5.04-6.41-6.56-10.88-1.51-4.47-2.65-9.73-3.39-15.79-.7-5.62-.92-10.57-.67-14.82.26-4.25,1.07-7.91,2.47-10.97,1.39-3.06,3.42-5.58,6.1-7.55,2.68-1.98,6.12-3.47,10.35-4.49l1.76,14.22c-2.39.73-4.29,1.72-5.68,2.99-1.4,1.26-2.4,2.81-3.01,4.66-.61,1.84-.91,3.97-.89,6.39.02,2.42.22,5.16.6,8.22.46,3.73,1.1,6.99,1.91,9.78.81,2.79,2.1,5.05,3.86,6.79,1.77,1.73,4.18,2.9,7.23,3.49,3.05.58,7.03.57,11.92-.03,4.71-.59,8.44-1.53,11.2-2.83,2.76-1.3,4.8-3.01,6.12-5.13,1.32-2.12,2.07-4.63,2.24-7.54.17-2.91.02-6.23-.44-9.96-.38-3.06-.87-5.79-1.48-8.2-.61-2.41-1.46-4.45-2.57-6.11-1.11-1.67-2.53-2.96-4.26-3.9-1.73-.93-3.9-1.43-6.52-1.48l-1.77-14.31c4.41-.04,8.18.54,11.35,1.77Z"/>
        <path d="M42.45,689.7l52.12,1.39-.37,13.95-52.11-1.39-.75,27.71-11.64-.31,1.86-69.49,11.64.31-.75,27.82Z"/>
        <path d="M37.41,614.6l37.16,6.53c3.1.55,5.73.6,7.9.17,2.18-.43,3.99-1.33,5.45-2.7s2.64-3.18,3.54-5.44,1.63-4.96,2.18-8.11c.56-3.16.8-5.96.73-8.42-.07-2.45-.56-4.57-1.46-6.36s-2.31-3.25-4.21-4.4c-1.89-1.15-4.39-1.99-7.49-2.53l-37.16-6.53,2.42-13.75,38.25,6.72c8.8,1.55,14.88,5.31,18.2,11.28,3.33,5.97,4.01,14.63,2.01,25.98-1.99,11.29-5.55,19.2-10.69,23.7-5.15,4.51-12.15,5.99-21.01,4.43l-38.26-6.72,2.43-13.85Z"/>
        <path d="M94.33,520.37l6.01-17.88c1.37-4.09,1.62-7.47.73-10.14-.89-2.67-3.55-4.76-7.99-6.25-2.1-.7-3.89-1.06-5.35-1.06-1.46,0-2.75.36-3.88,1.09-1.12.72-2.1,1.84-2.93,3.35-.83,1.51-1.65,3.46-2.46,5.86l-7.1,21.12,49.61,16.67-4.45,13.24-60.47-20.33,12.37-36.81c1.39-4.15,2.96-7.58,4.69-10.32,1.73-2.73,3.74-4.79,6.02-6.16,2.28-1.38,4.84-2.1,7.65-2.16,2.82-.06,6.04.52,9.66,1.73,6.55,2.2,10.97,5.57,13.28,10.12,2.31,4.55,2.18,10.55-.4,18.01l27.9-15.69-5.74,17.09-37.15,18.53Z"/>
        <path d="M148.11,459.86l-56.93-28.81,25.72-50.82,9.9,5.01-19.42,38.36,13.53,6.85,19.08-37.71,9.74,4.93-19.08,37.71,13.86,7.02,19.45-38.45,9.9,5.01-25.76,50.91Z"/>
        <path d="M198.09,371.07c-3.09,3.11-6.16,5.33-9.22,6.69-3.06,1.35-6.15,1.81-9.28,1.38-3.13-.43-6.4-1.81-9.81-4.13l8.4-11.95c2.04,1.28,3.94,1.94,5.73,1.99,1.78.04,3.49-.39,5.15-1.3,1.66-.9,3.3-2.25,4.93-4.04,1.64-1.79,3.32-3.92,5.06-6.39,2.34-3.32,4.08-6.14,5.2-8.44,1.12-2.3,1.79-4.24,2-5.82.21-1.59.03-2.9-.55-3.95s-1.42-1.97-2.54-2.75c-1.16-.82-2.25-1.25-3.28-1.29-1.03-.04-2.04.17-3.04.64-1,.46-2.02,1.16-3.05,2.09-1.03.93-2.11,1.98-3.23,3.14l-15.57,16.19c-4.58,4.69-8.95,7.42-13.11,8.19-4.16.77-8.15-.19-11.99-2.89-2.12-1.49-3.8-3.31-5.03-5.46s-1.85-4.74-1.82-7.78c.02-3.03.84-6.54,2.44-10.55,1.61-4,4.21-8.56,7.83-13.7,3.12-4.44,6.13-8.11,9.04-11,2.9-2.9,5.82-4.99,8.76-6.28,2.94-1.29,5.97-1.74,9.09-1.35s6.4,1.67,9.83,3.86l-8.09,11.5c-2.02-1.2-3.89-1.84-5.61-1.91-1.72-.07-3.36.33-4.93,1.22-1.57.9-3.12,2.19-4.64,3.87-1.52,1.68-3.11,3.7-4.78,6.07-2.3,3.28-3.99,6.05-5.05,8.32-1.06,2.27-1.68,4.15-1.83,5.66-.16,1.51.02,2.71.52,3.59s1.19,1.63,2.05,2.23c1.62,1.14,3.3,1.48,5.06,1.01,1.75-.46,3.76-1.86,6.01-4.2l15.22-15.86c2.52-2.61,4.88-4.77,7.1-6.48,2.22-1.72,4.4-2.91,6.54-3.6,2.14-.68,4.28-.81,6.44-.39,2.15.42,4.41,1.46,6.78,3.13,2.57,1.81,4.56,3.83,5.97,6.06s2.08,4.89,2.02,7.98c-.06,3.09-.97,6.66-2.71,10.7-1.76,4.04-4.55,8.79-8.37,14.23-3.33,4.74-6.55,8.66-9.64,11.77Z"/>
      </g>
    </g>
  </g>
</svg>